<?xml version="1.0" encoding="UTF-8"?>
<svg width="16px" height="16px" viewBox="0 0 16 16" version="1.1" xmlns="http://www.w3.org/2000/svg" xmlns:xlink="http://www.w3.org/1999/xlink">
    <!-- Generator: Sketch 50.2 (55047) - http://www.bohemiancoding.com/sketch -->
    <title>Artboard 7</title>
    <desc>Created with Sketch.</desc>
    <defs></defs>
    <g id="Artboard-7" stroke="none" stroke-width="1" fill="none" fill-rule="evenodd">
        <g id="flag" fill="#E31B23">
            <g id="205-flag">
                <g id="Group">
                    <polygon id="Shape" points="0 0 2 0 2 16 0 16"></polygon>
                    <path d="M13,10.047 C14.291,10.047 15.415,9.735 16,9.274 L16,1.274 C15.415,1.735 14.291,2.047 13,2.047 C11.709,2.047 10.585,1.735 10,1.274 L10,9.274 C10.585,9.735 11.709,10.047 13,10.047 Z" id="Shape"></path>
                    <path d="M9.5,0.508 C8.767,0.196 7.695,0 6.5,0 C4.994,0 3.682,0.312 3,0.773 L3,8.773 C3.682,8.312 4.994,8 6.5,8 C7.695,8 8.767,8.197 9.5,8.508 L9.5,0.508 L9.5,0.508 Z" id="Shape"></path>
                </g>
            </g>
        </g>
    </g>
</svg>